<svg width="24" height="25" viewBox="0 0 24 25" fill="none" xmlns="http://www.w3.org/2000/svg">
<path d="M12 0.833984C15.1698 0.833984 15.5653 0.845651 16.809 0.903984C18.0515 0.962318 18.8973 1.15715 19.6417 1.44648C20.4117 1.74282 21.0603 2.14415 21.709 2.79165C22.3022 3.37486 22.7613 4.08034 23.0542 4.85898C23.3423 5.60215 23.5383 6.44915 23.5967 7.69165C23.6515 8.93532 23.6667 9.33082 23.6667 12.5007C23.6667 15.6705 23.655 16.066 23.5967 17.3097C23.5383 18.5522 23.3423 19.398 23.0542 20.1423C22.7621 20.9214 22.303 21.627 21.709 22.2097C21.1256 22.8027 20.4202 23.2617 19.6417 23.5548C18.8985 23.843 18.0515 24.039 16.809 24.0973C15.5653 24.1522 15.1698 24.1673 12 24.1673C8.83017 24.1673 8.43467 24.1557 7.191 24.0973C5.9485 24.039 5.10267 23.843 4.35834 23.5548C3.57938 23.2625 2.87378 22.8034 2.291 22.2097C1.69764 21.6265 1.23859 20.921 0.945836 20.1423C0.656503 19.3992 0.461669 18.5522 0.403336 17.3097C0.348502 16.066 0.333336 15.6705 0.333336 12.5007C0.333336 9.33082 0.345002 8.93532 0.403336 7.69165C0.461669 6.44798 0.656503 5.60332 0.945836 4.85898C1.23778 4.07986 1.69694 3.37419 2.291 2.79165C2.87395 2.19809 3.5795 1.739 4.35834 1.44648C5.10267 1.15715 5.94734 0.962318 7.191 0.903984C8.43467 0.849151 8.83017 0.833984 12 0.833984ZM12 6.66732C10.4529 6.66732 8.96918 7.2819 7.87521 8.37586C6.78125 9.46982 6.16667 10.9536 6.16667 12.5007C6.16667 14.0477 6.78125 15.5315 7.87521 16.6254C8.96918 17.7194 10.4529 18.334 12 18.334C13.5471 18.334 15.0308 17.7194 16.1248 16.6254C17.2188 15.5315 17.8333 14.0477 17.8333 12.5007C17.8333 10.9536 17.2188 9.46982 16.1248 8.37586C15.0308 7.2819 13.5471 6.66732 12 6.66732ZM19.5833 6.37565C19.5833 5.98888 19.4297 5.61794 19.1562 5.34445C18.8827 5.07096 18.5118 4.91732 18.125 4.91732C17.7382 4.91732 17.3673 5.07096 17.0938 5.34445C16.8203 5.61794 16.6667 5.98888 16.6667 6.37565C16.6667 6.76243 16.8203 7.13336 17.0938 7.40685C17.3673 7.68034 17.7382 7.83398 18.125 7.83398C18.5118 7.83398 18.8827 7.68034 19.1562 7.40685C19.4297 7.13336 19.5833 6.76243 19.5833 6.37565ZM12 9.00065C12.9283 9.00065 13.8185 9.3694 14.4749 10.0258C15.1313 10.6822 15.5 11.5724 15.5 12.5007C15.5 13.4289 15.1313 14.3191 14.4749 14.9755C13.8185 15.6319 12.9283 16.0007 12 16.0007C11.0717 16.0007 10.1815 15.6319 9.52513 14.9755C8.86875 14.3191 8.5 13.4289 8.5 12.5007C8.5 11.5724 8.86875 10.6822 9.52513 10.0258C10.1815 9.3694 11.0717 9.00065 12 9.00065Z" fill="#888888"/>
</svg>
