<svg width="24" height="21" viewBox="0 0 24 21" fill="none" xmlns="http://www.w3.org/2000/svg">
<path d="M23.8557 3.09919C22.965 3.49317 22.0205 3.75191 21.0533 3.86686C22.0727 3.2572 22.8357 2.29771 23.2 1.16719C22.2433 1.73652 21.1945 2.13552 20.1013 2.35136C19.3671 1.5657 18.3938 1.04465 17.3328 0.869207C16.2718 0.693765 15.1826 0.873764 14.2345 1.38122C13.2864 1.88868 12.5325 2.69516 12.09 3.67528C11.6475 4.65541 11.5412 5.75427 11.7877 6.80103C9.84763 6.70379 7.94973 6.19964 6.21718 5.3213C4.48462 4.44296 2.95616 3.21008 1.73101 1.70269C1.29735 2.44755 1.06946 3.29429 1.07067 4.15619C1.07067 5.84786 1.93167 7.34236 3.24067 8.21736C2.46602 8.19297 1.70841 7.98377 1.03101 7.60719V7.66786C1.03124 8.79451 1.42111 9.88641 2.1345 10.7584C2.84789 11.6304 3.8409 12.2289 4.94517 12.4524C4.22606 12.6472 3.47203 12.676 2.74017 12.5364C3.05152 13.5061 3.65835 14.3543 4.4757 14.962C5.29305 15.5697 6.27999 15.9066 7.29834 15.9255C6.28624 16.7204 5.12738 17.308 3.88804 17.6547C2.64869 18.0014 1.35316 18.1005 0.0755081 17.9462C2.30582 19.3805 4.90212 20.142 7.55384 20.1395C16.529 20.1395 21.4372 12.7044 21.4372 6.25619C21.4372 6.04619 21.4313 5.83386 21.422 5.62619C22.3773 4.93572 23.2019 4.08038 23.8568 3.10036L23.8557 3.09919Z" fill="#888888"/>
</svg>
